{"accessors" : [{"bufferView" : 0, "byteOffset" : 0, "componentType" : 5123, "count" : 27264, "type" : "SCALAR", "max" : [27263], "min" : [0]}, {"bufferView" : 1, "byteOffset" : 0, "componentType" : 5126, "count" : 27264, "type" : "VEC3", "max" : [872424.875, 872428.875, 872432.875], "min" : [8.858449935913086, 12.858449935913086, 16.858449935913086]}, {"bufferView" : 1, "byteOffset" : 12, "componentType" : 5126, "count" : 27264, "type" : "VEC2", "max" : [872436.875, 872440.875], "min" : [20.858449935913086, 24.858449935913086]}, {"bufferView" : 1, "byteOffset" : 20, "componentType" : 5126, "count" : 27264, "type" : "VEC3", "max" : [872444.875, 872448.875, 872452.875], "min" : [28.858449935913086, 32.85845184326172, 36.85845184326172]}], "asset" : {"generator" : "Aspose.3D 20.8", "version" : "2.0"}, "buffers" : [{"uri" : "buffer.bin", "byteLength" : 926984}], "bufferViews" : [{"buffer" : 0, "byteOffset" : 0, "byteLength" : 54528, "target" : 34963}, {"buffer" : 0, "byteOffset" : 54532, "byteLength" : 872448, "byteStride" : 32, "target" : 34962}], "meshes" : [{"primitives" : [{"attributes" : {"POSITION" : 1, "TEXCOORD_0" : 2, "NORMAL" : 3}, "indices" : 0, "mode" : 4}]}], "nodes" : [{"mesh" : 0, "name" : ""}], "scene" : 0, "scenes" : [{"nodes" : [0]}]}