{
    "asset": {
        "version": "2.0",
        "generator": "Open Asset Import Library (assimp v5.0.5eb040c7)"
    },
    "accessors": [
        {
            "bufferView": 0,
            "byteOffset": 0,
            "componentType": 5126,
            "count": 5171,
            "type": "VEC3",
            "max": [
                73.5,
                459.4671936035156,
                73.5
            ],
            "min": [
                -73.5,
                0.0,
                -73.5
            ]
        },
        {
            "bufferView": 1,
            "byteOffset": 0,
            "componentType": 5126,
            "count": 5171,
            "type": "VEC3",
            "max": [
                1.0,
                1.0,
                1.0
            ],
            "min": [
                -1.0,
                -1.0,
                -1.0
            ]
        },
        {
            "bufferView": 2,
            "byteOffset": 0,
            "componentType": 5126,
            "count": 5171,
            "type": "VEC2",
            "max": [
                0.8901000022888184,
                0.9976999759674072
            ],
            "min": [
                0.009100000374019146,
                0.002200007438659668
            ]
        },
        {
            "bufferView": 3,
            "byteOffset": 0,
            "componentType": 5125,
            "count": 27264,
            "type": "SCALAR",
            "max": [
                5170
            ],
            "min": [
                0
            ]
        }
    ],
    "buffers": [
        {
            "byteLength": 274528,
            "uri": "result.bin"
        }
    ],
    "bufferViews": [
        {
            "buffer": 0,
            "byteOffset": 0,
            "byteLength": 62052,
            "target": 34962
        },
        {
            "buffer": 0,
            "byteOffset": 62052,
            "byteLength": 62052,
            "target": 34962
        },
        {
            "buffer": 0,
            "byteOffset": 124104,
            "byteLength": 41368,
            "target": 34962
        },
        {
            "buffer": 0,
            "byteOffset": 165472,
            "byteLength": 109056,
            "target": 34963
        }
    ],
    "materials": [
        {
            "name": "DefaultMaterial",
            "pbrMetallicRoughness": {
                "baseColorFactor": [
                    0.6000000238418579,
                    0.6000000238418579,
                    0.6000000238418579,
                    1.0
                ],
                "metallicFactor": 0.0
            }
        },
        {
            "name": "Base_Col",
            "pbrMetallicRoughness": {
                "baseColorFactor": [
                    0.6000000238418579,
                    0.6000000238418579,
                    0.6000000238418579,
                    1.0
                ],
                "metallicFactor": 0.0
            }
        }
    ],
    "meshes": [
        {
            "name": "Sansewieria",
            "primitives": [
                {
                    "mode": 4,
                    "material": 1,
                    "indices": 3,
                    "attributes": {
                        "POSITION": 0,
                        "NORMAL": 1,
                        "TEXCOORD_0": 2
                    }
                }
            ]
        }
    ],
    "nodes": [
        {
            "name": "input.obj",
            "children": [
                1
            ]
        },
        {
            "name": "Sansewieria",
            "mesh": 0
        }
    ],
    "scenes": [
        {
            "nodes": [
                0
            ]
        }
    ],
    "scene": 0
}