{
    "asset": {
        "version": "2.0",
        "generator": "Open Asset Import Library (assimp v5.0.5eb040c7)"
    },
    "accessors": [
        {
            "bufferView": 0,
            "byteOffset": 0,
            "componentType": 5126,
            "count": 4859,
            "type": "VEC3",
            "max": [
                73.5,
                73.5,
                459.4671630859375
            ],
            "min": [
                -73.5,
                -73.49999237060547,
                0.0
            ]
        },
        {
            "bufferView": 1,
            "byteOffset": 0,
            "componentType": 5126,
            "count": 4859,
            "type": "VEC3",
            "max": [
                1.0,
                1.0,
                1.0
            ],
            "min": [
                -1.0,
                -1.0,
                -1.0
            ]
        },
        {
            "bufferView": 2,
            "byteOffset": 0,
            "componentType": 5125,
            "count": 27264,
            "type": "SCALAR",
            "max": [
                4858
            ],
            "min": [
                0
            ]
        }
    ],
    "buffers": [
        {
            "byteLength": 225672,
            "uri": "result.bin"
        }
    ],
    "bufferViews": [
        {
            "buffer": 0,
            "byteOffset": 0,
            "byteLength": 58308,
            "target": 34962
        },
        {
            "buffer": 0,
            "byteOffset": 58308,
            "byteLength": 58308,
            "target": 34962
        },
        {
            "buffer": 0,
            "byteOffset": 116616,
            "byteLength": 109056,
            "target": 34963
        }
    ],
    "images": [
        {
            "uri": "..\\..\\..\\..\\ROSLINY_PROJ\\RenderToTexture\\V002\\Sansewieria_BC_AO.jpg"
        }
    ],
    "materials": [
        {
            "name": "Base_Col",
            "pbrMetallicRoughness": {
                "baseColorTexture": {
                    "index": 0
                },
                "baseColorFactor": [
                    0.5879999995231628,
                    0.5879999995231628,
                    0.5879999995231628,
                    1.0
                ],
                "metallicFactor": 0.0,
                "roughnessFactor": 0.9430789947509766
            }
        }
    ],
    "meshes": [
        {
            "name": "Sansewieria",
            "primitives": [
                {
                    "mode": 4,
                    "material": 0,
                    "indices": 2,
                    "attributes": {
                        "POSITION": 0,
                        "NORMAL": 1
                    }
                }
            ]
        }
    ],
    "nodes": [
        {
            "name": "RootNode",
            "children": [
                1
            ]
        },
        {
            "name": "Sansewieria_$AssimpFbx$_PreRotation",
            "matrix": [
                1.0,
                0.0,
                0.0,
                0.0,
                0.0,
                -4.371138828673793e-8,
                -1.0,
                0.0,
                0.0,
                1.0,
                -4.371138828673793e-8,
                0.0,
                0.0,
                0.0,
                0.0,
                1.0
            ],
            "children": [
                2
            ]
        },
        {
            "name": "Sansewieria",
            "mesh": 0
        }
    ],
    "samplers": [
        {}
    ],
    "scenes": [
        {
            "nodes": [
                0
            ]
        }
    ],
    "textures": [
        {
            "source": 0,
            "sampler": 0
        }
    ],
    "scene": 0
}