{
   "accessors":[
      {
         "bufferView":0,
         "byteOffset":0,
         "componentType":5123,
         "count":27264,
         "type":"SCALAR",
         "max":[
            27263
         ],
         "min":[
            0
         ]
      },
      {
         "bufferView":1,
         "byteOffset":0,
         "componentType":5126,
         "count":27264,
         "type":"VEC3",
         "max":[
            872415.4375,
            872419.4375,
            872423.4375
         ],
         "min":[
            -0.5637000203132629,
            3.436300039291382,
            7.436299800872803
         ]
      },
      {
         "bufferView":1,
         "byteOffset":12,
         "componentType":5126,
         "count":27264,
         "type":"VEC2",
         "max":[
            872427.4375,
            872431.4375
         ],
         "min":[
            11.436300277709961,
            15.436300277709961
         ]
      },
      {
         "bufferView":1,
         "byteOffset":20,
         "componentType":5126,
         "count":27264,
         "type":"VEC3",
         "max":[
            872435.4375,
            872439.4375,
            872443.4375
         ],
         "min":[
            19.43630027770996,
            23.43630027770996,
            27.43630027770996
         ]
      }
   ],
   "asset":{
      "generator":"Aspose.3D 20.8",
      "version":"2.0"
   },
   "buffers":[
      {
         "uri":"buffer.bin",
         "byteLength":926984
      }
   ],
   "bufferViews":[
      {
         "buffer":0,
         "byteOffset":0,
         "byteLength":54528,
         "target":34963
      },
      {
         "buffer":0,
         "byteOffset":54532,
         "byteLength":872448,
         "byteStride":32,
         "target":34962
      }
   ],
   "meshes":[
      {
         "primitives":[
            {
               "attributes":{
                  "POSITION":1,
                  "TEXCOORD_0":2,
                  "NORMAL":3
               },
               "indices":0,
               "mode":4
            }
         ]
      }
   ],
   "nodes":[
      {
         "mesh":0,
         "name":"Sansewieria"
      }
   ],
   "scene":0,
   "scenes":[
      {
         "nodes":[
            0
         ]
      }
   ]
}