{"asset":{"version":"2.0","generator":"tomeck"},"scene":0,"scenes":[{"nodes":[0,1]}],"nodes":[{"mesh":0,"translation":[2.23517413E-10,0.0,0.0],"name":"ficus_ben"},{"name":"Default light"}],"meshes":[{"primitives":[{"attributes":{"POSITION":1,"NORMAL":2,"TEXCOORD_0":3},"indices":0,"material":0}],"name":"ficus_ben"}],"accessors":[{"bufferView":0,"componentType":5125,"count":150135,"type":"SCALAR","name":"accessorIndices"},{"bufferView":1,"componentType":5126,"count":150135,"max":[0.1712938,0.388847619,0.131834239],"min":[-0.174744576,0.0,-0.154832765],"type":"VEC3","name":"accessorPositions"},{"bufferView":1,"byteOffset":1801620,"componentType":5126,"count":150135,"type":"VEC3","name":"accessorNormals"},{"bufferView":2,"componentType":5126,"count":150135,"type":"VEC2","name":"accessorUVs"}],"bufferViews":[{"buffer":0,"byteLength":600540,"name":"bufferViewScalar"},{"buffer":0,"byteOffset":600540,"byteLength":3603240,"byteStride":12,"name":"bufferViewFloatVec3"},{"buffer":0,"byteOffset":4203780,"byteLength":1201080,"byteStride":8,"name":"bufferViewFloatVec2"}],"buffers":[{"uri":"bicus_ben_v001.bin","byteLength":5404860}],"materials":[{"pbrMetallicRoughness":{"baseColorTexture":{"index":1},"metallicRoughnessTexture":{"index":2}},"normalTexture":{"index":0},"name":"Material #64"}],"textures":[{"sampler":0,"source":0,"name":"ficus_n_v1.jpg"},{"sampler":0,"source":1,"name":"ficus_d_v1.jpg"},{"sampler":0,"source":2,"name":"ficus_r_v10.jpg"}],"images":[{"uri":"./ficus_n_v1.jpg"},{"uri":"./ficus_d_v1.jpg"},{"uri":"./ficus_r_v10.jpg"}],"samplers":[{"magFilter":9729,"minFilter":9987}]}