{"asset":{"version":"2.0","generator":"tomeck"},"scene":0,"scenes":[{"nodes":[0,1]}],"nodes":[{"mesh":0,"name":"sansewiera"},{"name":"Default light"}],"meshes":[{"primitives":[{"attributes":{"POSITION":1,"NORMAL":2,"TEXCOORD_0":3},"indices":0,"material":0}],"name":"sansewiera"}],"accessors":[{"bufferView":0,"componentType":5123,"count":27264,"type":"SCALAR","name":"accessorIndices"},{"bufferView":1,"componentType":5126,"count":27264,"max":[0.0695588961,0.434831,0.0695589],"min":[-0.0695591047,0.0,-0.06955899],"type":"VEC3","name":"accessorPositions"},{"bufferView":1,"byteOffset":327168,"componentType":5126,"count":27264,"type":"VEC3","name":"accessorNormals"},{"bufferView":2,"componentType":5126,"count":27264,"type":"VEC2","name":"accessorUVs"}],"bufferViews":[{"buffer":0,"byteLength":54528,"name":"bufferViewScalar"},{"buffer":0,"byteOffset":54528,"byteLength":654336,"byteStride":12,"name":"bufferViewFloatVec3"},{"buffer":0,"byteOffset":708864,"byteLength":218112,"byteStride":8,"name":"bufferViewFloatVec2"}],"buffers":[{"uri":"sansewieria_v010.bin","byteLength":926976}],"materials":[{"pbrMetallicRoughness":{"baseColorTexture":{"index":1},"metallicRoughnessTexture":{"index":2}},"normalTexture":{"index":0},"name":"Material #25"}],"textures":[{"sampler":0,"source":0,"name":"sansewieria_nrl.jpg"},{"sampler":0,"source":1,"name":"sansewieria_diffAO.jpg"},{"sampler":0,"source":2,"name":"sansewieria_rough0.jpg"}],"images":[{"uri":"./sansewieria_nrl.jpg"},{"uri":"./sansewieria_diffAO.jpg"},{"uri":"./sansewieria_rough0.jpg"}],"samplers":[{"magFilter":9729,"minFilter":9987}]}